<?xml version="1.0" encoding="UTF-8"?>
<svg width="665px" height="150px" viewBox="0 0 665 150" version="1.1" xmlns="http://www.w3.org/2000/svg" xmlns:xlink="http://www.w3.org/1999/xlink">
    <!-- Generator: Sketch 53.1 (72631) - https://sketchapp.com -->
    <title>Artboard</title>
    <desc>Created with Sketch.</desc>
    <defs>
        <linearGradient x1="50%" y1="0%" x2="50%" y2="100%" id="linearGradient-1">
            <stop stop-color="#6FF66F" offset="0%"></stop>
            <stop stop-color="#5BC63C" offset="100%"></stop>
        </linearGradient>
    </defs>
    <g id="Artboard" stroke="none" stroke-width="1" fill="none" fill-rule="evenodd">
        <g id="Group" transform="translate(0.000000, 30.000000)" fill="#000000" font-family="Futura-Bold, Futura" font-size="70" font-weight="bold">
            <text id="deadbeef">
                <tspan x="0.24" y="73">deadbeef</tspan>
            </text>
        </g>
        <path d="M551,9 L611,9 C630.882251,9 647,25.117749 647,45 L647,105 C647,124.882251 630.882251,141 611,141 L551,141 C531.117749,141 515,124.882251 515,105 L515,45 C515,25.117749 531.117749,9 551,9 Z M604.913154,65.8792378 L585.315735,65.8792378 L598.01042,30.4752636 C598.120799,30.140138 598.066602,29.7730208 597.863999,29.483443 C597.661396,29.1938653 597.33381,29.0153047 596.978976,29.0010358 L575.204414,29.0010358 C574.687139,28.9790871 574.220634,29.307942 574.07096,29.8000447 L556.049042,74.0395076 C555.942068,74.3887781 556.012381,74.7678674 556.23765,75.056391 C556.46292,75.3449145 556.815153,75.5070197 557.182496,75.4912281 L575.204414,75.4912281 L565.332942,120.650739 C565.235307,121.1707 565.515545,121.687997 566.006315,121.893732 C566.497085,122.099467 567.065925,121.938111 567.373159,121.506016 L605.819917,67.6122995 C606.039665,67.2729881 606.059679,66.8428512 605.872378,66.4848689 C605.685076,66.1268866 605.319114,65.8958264 604.913154,65.8792378 Z" id="Rectangle-2" fill="url(#linearGradient-1)"></path>
        <path d="M437.5,13.5 L437.5,136" id="Line" stroke="#000000" stroke-width="7" stroke-linecap="square"></path>
    </g>
</svg>